<?xml version="1.0" encoding="UTF-8"?>
<svg xmlns="http://www.w3.org/2000/svg" xmlns:xlink="http://www.w3.org/1999/xlink" viewBox="0 0 128 128" width="128px" height="128px">
<g id="surface32405794">
<path style=" stroke:none;fill-rule:nonzero;fill:rgb(98.823529%,66.666669%,32.156864%);fill-opacity:1;" d="M 16.695312 42.140625 L 4.695312 52.484375 C 4.253906 52.863281 4 53.417969 4 54 C 4 54.582031 4.253906 55.136719 4.695312 55.515625 L 16.695312 65.859375 Z M 16.695312 42.140625 "/>
<path style=" stroke:none;fill-rule:nonzero;fill:rgb(98.823529%,66.666669%,32.156864%);fill-opacity:1;" d="M 111.304688 65.859375 L 123.308594 55.511719 C 123.75 55.132812 124 54.578125 124 54 C 124 53.417969 123.75 52.863281 123.308594 52.484375 L 111.304688 42.136719 Z M 111.304688 65.859375 "/>
<path style=" stroke:none;fill-rule:nonzero;fill:rgb(90.588236%,91.764706%,93.725491%);fill-opacity:1;" d="M 22 4 C 18.695312 4.015625 16.019531 6.691406 16.007812 9.996094 L 16.007812 103.089844 L 112 103.089844 L 112 9.996094 C 111.984375 6.691406 109.308594 4.015625 106.007812 4 Z M 22 4 "/>
<path style=" stroke:none;fill-rule:nonzero;fill:rgb(84.705883%,85.882354%,87.843138%);fill-opacity:1;" d="M 106.007812 4 L 98.007812 4 C 101.308594 4.015625 103.984375 6.691406 104 9.996094 L 104 103.089844 L 112 103.089844 L 112 9.996094 C 111.984375 6.691406 109.308594 4.015625 106.007812 4 Z M 106.007812 4 "/>
<path style=" stroke:none;fill-rule:nonzero;fill:rgb(98.823529%,72.156864%,37.64706%);fill-opacity:1;" d="M 6.027344 51.996094 C 5.496094 51.988281 4.984375 52.195312 4.605469 52.566406 C 4.226562 52.9375 4.011719 53.441406 4.003906 53.972656 C 4.003906 53.984375 4.003906 53.996094 4.003906 54.007812 L 4.003906 118.007812 C 4.019531 121.3125 6.691406 123.984375 9.996094 124 L 117.992188 124 C 121.300781 123.988281 123.980469 121.316406 124.003906 118.007812 L 124.003906 54.007812 C 124.007812 53.222656 123.554688 52.507812 122.839844 52.179688 C 122.128906 51.851562 121.289062 51.972656 120.695312 52.484375 L 64.003906 101.367188 L 7.308594 52.484375 C 6.953125 52.175781 6.5 52.003906 6.027344 51.996094 Z M 6.027344 51.996094 "/>
<path style=" stroke:none;fill-rule:nonzero;fill:rgb(98.823529%,66.666669%,32.156864%);fill-opacity:1;" d="M 124 54 L 124 118 C 124.003906 119.644531 123.320312 121.214844 122.121094 122.339844 C 121.269531 123.164062 120.1875 123.707031 119.019531 123.898438 C 118.683594 123.964844 118.34375 123.996094 118 124 L 110 124 C 113.308594 123.984375 115.984375 121.308594 116 118 L 116 56.539062 L 120.699219 52.480469 C 121.292969 51.972656 122.128906 51.855469 122.835938 52.183594 C 123.546875 52.511719 124 53.21875 124 54 Z M 124 54 "/>
<path style=" stroke:none;fill-rule:nonzero;fill:rgb(84.705883%,85.882354%,87.843138%);fill-opacity:1;" d="M 37.007812 19.605469 L 83.816406 19.605469 C 84.460938 19.609375 85.058594 19.265625 85.382812 18.707031 C 85.703125 18.148438 85.703125 17.460938 85.382812 16.902344 C 85.058594 16.34375 84.460938 16 83.816406 16.003906 L 36.914062 16.003906 C 36.261719 16.007812 35.664062 16.363281 35.347656 16.933594 C 35.03125 17.507812 35.050781 18.203125 35.394531 18.757812 C 35.738281 19.308594 36.355469 19.636719 37.007812 19.605469 Z M 37.007812 19.605469 "/>
<path style=" stroke:none;fill-rule:nonzero;fill:rgb(84.705883%,85.882354%,87.843138%);fill-opacity:1;" d="M 29.800781 30.398438 C 28.808594 30.398438 28 31.203125 28 32.199219 C 28 33.195312 28.808594 34 29.800781 34 L 73.011719 34 C 74.007812 34 74.8125 33.195312 74.8125 32.199219 C 74.8125 31.203125 74.007812 30.398438 73.011719 30.398438 Z M 29.800781 30.398438 "/>
<path style=" stroke:none;fill-rule:nonzero;fill:rgb(84.705883%,85.882354%,87.843138%);fill-opacity:1;" d="M 30.003906 43.996094 C 29.285156 43.992188 28.621094 44.375 28.265625 44.996094 C 27.90625 45.613281 27.90625 46.378906 28.265625 47 C 28.621094 47.617188 29.285156 48 30.003906 47.996094 L 98.003906 47.996094 C 98.71875 48 99.382812 47.617188 99.742188 47 C 100.101562 46.378906 100.101562 45.613281 99.742188 44.996094 C 99.382812 44.375 98.71875 43.992188 98.003906 43.996094 Z M 30.003906 43.996094 "/>
<path style=" stroke:none;fill-rule:nonzero;fill:rgb(84.705883%,85.882354%,87.843138%);fill-opacity:1;" d="M 86 31.992188 C 84.894531 31.992188 84 32.890625 84 33.992188 C 84 35.097656 84.894531 35.992188 86 35.992188 L 98.003906 35.992188 C 99.109375 35.992188 100.003906 35.097656 100.003906 33.992188 C 100.003906 32.890625 99.109375 31.992188 98.003906 31.992188 Z M 86 31.992188 "/>
<path style=" stroke:none;fill-rule:nonzero;fill:rgb(84.705883%,85.882354%,87.843138%);fill-opacity:1;" d="M 98.003906 56 C 99.109375 56 100.003906 56.894531 100.003906 58 C 100.003906 59.105469 99.109375 60 98.003906 60 L 50.007812 60 C 49.289062 60.003906 48.628906 59.621094 48.269531 59 C 47.910156 58.382812 47.910156 57.617188 48.269531 56.996094 C 48.628906 56.378906 49.289062 55.996094 50.007812 56 Z M 98.003906 56 "/>
<path style=" stroke:none;fill-rule:nonzero;fill:rgb(84.705883%,85.882354%,87.843138%);fill-opacity:1;" d="M 42.003906 72.003906 L 86 72.003906 C 87.105469 72.003906 88 71.105469 88 70.003906 C 88 68.898438 87.105469 68 86 68 L 41.902344 68 C 41.175781 68.007812 40.511719 68.402344 40.160156 69.035156 C 39.8125 69.671875 39.832031 70.445312 40.214844 71.058594 C 40.597656 71.675781 41.28125 72.035156 42.003906 72.003906 Z M 42.003906 72.003906 "/>
<path style=" stroke:none;fill-rule:nonzero;fill:rgb(84.705883%,85.882354%,87.843138%);fill-opacity:1;" d="M 42.003906 56 C 43.105469 56.003906 44 56.898438 44 58 C 44 59.101562 43.105469 59.996094 42.003906 60 L 30.003906 60 C 29.285156 60.003906 28.621094 59.621094 28.265625 59 C 27.90625 58.382812 27.90625 57.617188 28.265625 56.996094 C 28.621094 56.378906 29.285156 55.996094 30.003906 56 Z M 42.003906 56 "/>
<path style=" stroke:none;fill-rule:nonzero;fill:rgb(98.823529%,66.666669%,32.156864%);fill-opacity:1;" d="M 45.464844 86 C 44.976562 85.996094 44.503906 86.167969 44.136719 86.484375 L 5.976562 119.390625 C 5.554688 119.753906 5.300781 120.28125 5.28125 120.839844 C 5.265625 121.398438 5.480469 121.941406 5.878906 122.332031 C 6.980469 123.40625 8.460938 124.003906 10 124 L 118 124 C 119.539062 124.003906 121.019531 123.40625 122.121094 122.332031 C 122.519531 121.941406 122.734375 121.398438 122.71875 120.839844 C 122.699219 120.28125 122.445312 119.753906 122.023438 119.390625 L 83.863281 86.484375 C 83.113281 85.839844 82.003906 85.839844 81.253906 86.484375 L 64 101.359375 L 46.746094 86.484375 C 46.390625 86.175781 45.9375 86.003906 45.464844 86 Z M 45.464844 86 "/>
<path style=" stroke:none;fill-rule:nonzero;fill:rgb(98.823529%,61.960787%,22.745098%);fill-opacity:1;" d="M 122.121094 122.339844 C 121.269531 123.164062 120.1875 123.707031 119.019531 123.898438 C 118.683594 123.964844 118.34375 123.996094 118 124 L 110 124 C 113.308594 123.984375 115.984375 121.308594 116 118 L 116 114.199219 L 122.019531 119.398438 C 122.445312 119.765625 122.695312 120.289062 122.714844 120.847656 C 122.734375 121.40625 122.519531 121.949219 122.121094 122.339844 Z M 122.121094 122.339844 "/>
</g>
</svg>
