<svg xmlns="http://www.w3.org/2000/svg"  viewBox="0 0 135 135" width="40px" height="40px"><g id="_x33_6"><path fill="#9ee6ff" d="M131.5050049,67.5c0,35.4728546-28.7757492,64.0100098-64.0197754,64.0100098 c-35.4114075,0-63.9902344-28.7344284-63.9902344-64.0100098c0-35.3499756,28.6501465-64.0100098,63.9902344-64.0100098 C102.8551025,3.4899902,131.5050049,32.1500244,131.5050049,67.5z"/><path fill="#76d8ff" d="M116.7106247,67.5c0,0.2952499,0,0.5987167-0.0082092,0.8940125 C116.2266464,95.1727676,94.3854294,116.7106247,67.5,116.7106247c-27.2324066,0-49.2106247-22.0836792-49.2106247-49.2106247 c0-27.1724701,22.0299454-49.2106247,49.2106247-49.2106247C94.6805801,18.2893753,116.7106247,40.3275299,116.7106247,67.5z"/><path fill="#f14448" d="M81.3283234,54.0592308c-9.2326736-6.4037743-18.5570717-6.2821198-27.9677238,0 c-2.0893555-3.0807877-3.0875092-6.5195198,0-11.2978668c9.4106522-6.2821198,19.0442848-6.4037743,28.2769661,0 C85.4369736,48.6581154,83.5836868,51.4684677,81.3283234,54.0592308z"/><path fill="#ffc27c" d="M50.4248085,25.5420208v13.3325863c0,4.2436485,2.4467239,8.1069412,6.2831535,9.9208794 l0.0000038,0.0000038v26.5589409H79.048378V48.260746l0.329422-0.2940025 c3.3059616-2.9504852,5.1962585-7.1711617,5.1962585-11.6022758V22.1663685 c0-3.2773514-2.6568146-5.9341698-5.934166-5.9341698H61.3345222v0.0000057L50.4248085,25.5420208z"/><polygon fill="#ffc27c" points="67.4947968,72.9907608 65.7791061,75.35112 56.7119904,75.35112 56.7119904,58.1736603"/><path fill="#ffc27c" d="M79.0467911,57.0922966V75.35112H65.7791061l12.6335526-17.3437996 C78.6309738,57.7057419,78.8492966,57.4042244,79.0467911,57.0922966z"/><path fill="#f7b26d" d="M59.1141357,48.7969055v26.5571442h-2.4050903V48.7969055 c-3.8362656-1.8151398-6.2832413-5.6793556-6.2832413-9.9240036V25.5419407l10.9084053-9.3096828h2.4050865 l-10.9084015,9.3096828v13.3309612C52.8308945,43.1175499,55.2778702,46.9817657,59.1141357,48.7969055z"/><path fill="#ffc27c" d="M57.2421112,18.1067924v7.4352283c0,1.8825455-1.526104,3.4086494-3.4086494,3.4086494h-0.0000038 c-1.8825455,0-3.4086494-1.526104-3.4086494-3.4086494v-7.4352283c0-1.8825436,1.526104-3.4086475,3.4086494-3.4086475 h0.0000038C55.7160072,14.6981449,57.2421112,16.2242489,57.2421112,18.1067924z"/><path fill="#f7b26d" d="M56.8696442,27.0918293c-0.5620384,1.1030254-1.7104874,1.8604774-3.0369225,1.8604774 c-1.883606,0-3.4069176-1.5290451-3.4069176-3.4103661v-7.4351845c0-1.3229408,0.7540016-2.4678974,1.8535347-3.0334301 c-0.2373428,0.4642887-0.3699913,0.9913864-0.3699913,1.5464363v7.4351406 c0,1.8853664,1.5253334,3.410368,3.4104118,3.410368C55.8782578,27.465271,56.4053574,27.3326664,56.8696442,27.0918293z"/><path fill="#ffc27c" d="M64.0594177,14.7646446v12.5597382c0,1.8825455-1.5261078,3.4086494-3.4086494,3.4086494h-0.0000076 c-1.8825455,0-3.4086494-1.526104-3.4086494-3.4086494V14.7646446c0-1.8825445,1.526104-3.4086485,3.4086494-3.4086485 h0.0000076C62.5333099,11.3559961,64.0594177,12.8821001,64.0594177,14.7646446z"/><path fill="#f7b26d" d="M63.6869278,28.8755226c-0.5619965,1.1030693-1.7104454,1.8570709-3.0368805,1.8570709 c-1.8517342,0-3.4069176-1.4970264-3.4069176-3.4069157V14.7661858c0-1.326478,0.7540016-2.4714346,1.857029-3.0368814 c-0.2408371,0.4642038-0.3734856,0.9913006-0.3734856,1.5498447v12.5594912 c0,1.885231,1.5253334,3.4104099,3.4104118,3.4104099C62.6955833,29.2490501,63.222683,29.1164017,63.6869278,28.8755226z"/><path fill="#ffc27c" d="M70.8767166,11.9572392v14.9660854c0,1.8825455-1.5261002,3.4086494-3.4086456,3.4086494h-0.0000076 c-1.8825455,0-3.4086456-1.526104-3.4086456-3.4086494V11.9572392c0-1.8825445,1.5261002-3.4086485,3.4086456-3.4086485 h0.0000076C69.3506165,8.5485907,70.8767166,10.0746946,70.8767166,11.9572392z"/><path fill="#f7b26d" d="M70.5042572,28.4741268c-0.5654907,1.1030273-1.7104492,1.857029-3.0369263,1.857029 c-1.9112244,0-3.4069214-1.5564976-3.4069214-3.4069157V11.9561644c0-1.3229847,0.7540436-2.4679403,1.8535767-3.0333881 c-0.2373428,0.4642467-0.3700333,0.9913445-0.3700333,1.5498457v14.9645805 c0,1.8852139,1.5253372,3.4104099,3.4104156,3.4104099C69.5129089,28.8476124,70.0400085,28.7149639,70.5042572,28.4741268z"/><path fill="#ffc27c" d="M77.6940231,13.7397184v11.8023024c0,1.8825455-1.5261002,3.4086494-3.4086456,3.4086494h-0.0000076 c-1.8825455,0-3.4086533-1.526104-3.4086533-3.4086494V13.7397184c0-1.8825445,1.5261078-3.4086485,3.4086533-3.4086485 h0.0000076C76.167923,10.3310699,77.6940231,11.8571739,77.6940231,13.7397184z"/><path fill="#f7b26d" d="M77.321579,27.0918293c-0.5619965,1.1030254-1.7104492,1.8604774-3.0369263,1.8604774 c-1.8619766,0-3.4069138-1.509491-3.4069138-3.4103661V13.7399445c0-1.3229847,0.7539978-2.4714355,1.8570709-3.0369253 c-0.2408371,0.4642467-0.3735275,0.9913435-0.3735275,1.5498886V24.054903c0,1.8852482,1.5253296,3.410368,3.410408,3.410368 C76.3302383,27.465271,76.8573303,27.3326664,77.321579,27.0918293z"/><path fill="#ffc27c" d="M84.5751953,22.1664295v10.1718731h-7.0860672 c-4.9603043-2.6738815-2.7052841-9.627306-2.7052841-9.627306h-4.8765259 c-1.7906799,0-3.4103699-0.7260895-4.5797424-1.8989563c-0.895195-0.8951626-1.5300865-2.0506039-1.7805519-3.3421612 c-0.1241264-0.6400795,0.3592682-1.2376213,1.0112724-1.2376213h14.0827332 C81.9183807,16.2322578,84.5751953,18.8890762,84.5751953,22.1664295z"/><path fill="#f7b26d" d="M77.4891357,32.3382797c-0.8126221-0.3865356-1.6192627-0.8949585-2.2041016-1.6461182 c-1.7450562-2.2213936-1.821846-5.4973888-1.1173096-8.1808472l0.6159668,0.8473511l-3.7144775,0.0932007 c-1.1188507,0.0075035-2.3170624,0.1552811-3.9506836-0.5119629 c-3.7365036-1.5126038-4.2519188-5.1026878-4.3006592-5.2026978 c-0.1673737-0.716774,0.0678635-1.3571529,0.5229492-1.7706299c0.6531792-0.6007471,1.3320007-0.4652205,2.2995605-0.4425049 c4.2555084,0.1180162,8.7396774,0.2856894,13.0006104,0.7081909 c-6.1837845,0.6131649-14.0294876,0.7313728-13.9293213,0.7289429 c-0.140274,0.001688-0.2485733-0.0063705-0.3421631,0.0960693c-0.0604248,0.0649414-0.0819092,0.1519165-0.0738525,0.2325439 c0,0,0.0447998,0.2233276,0.0742188,0.3274536c0.5530243,2.1918316,2.5033875,4.006815,4.9250488,4.2895508 c0.355545,0.0381851,5.3876038,0.1544323,5.4887695,0.1564941l0.0279541,0.0007324 c0.3529053,0.0088501,0.6317139,0.302002,0.6228027,0.6548462c-0.0015869,0.0661621-0.0144043,0.1324463-0.0345459,0.1919556 c-0.4830399,1.4031563-0.7763367,3.4719563-0.5507813,5.0817261 C75.1511841,30.1003647,76.0768204,31.2762566,77.4891357,32.3382797z"/><g><path fill="#fc545d" d="M94.8310852,115.0505371l-5.5838318,7.0186234 c-1.4868317,1.8716202-4.3462753,1.8196411-5.7605057-0.0936127l-32.3375168-43.6194 c-7.164341-9.6493454-7.185154-22.8339539-0.0624504-32.4936409l0.946125-1.2789917 c0.1144905,0.1975632,0.2391319,0.3847198,0.3744392,0.5718765c-0.2495422,1.4869652-0.0416336,3.1714287,0.3326759,4.7518768 c0.707119,2.9322319,2.0589066,5.6669006,3.8473244,8.1000519l0.1246452,0.1663399l10.7828064,14.8171005 l27.4297104,37.6614532C95.8914413,111.9727173,95.8500671,113.7716064,94.8310852,115.0505371z"/></g><g opacity=".3"><path fill="#fff" d="M89.0394745,108.6030731c-0.0785065,0.2518463-0.2371368,0.4826965-0.4695511,0.6493454 c-0.5670853,0.406105-1.3573914,0.2769852-1.7652435-0.2884293l-6.610878-9.3308716 c-0.407486-0.566597-0.2793198-1.3554459,0.2893143-1.7623672c0.5670853-0.406105,1.3573837-0.2769852,1.7652435,0.2884369 l6.6108704,9.330864C89.1000748,107.8255234,89.1535568,108.2370758,89.0394745,108.6030731z"/></g><g><polygon fill="#f14448" points="79.8215256,89.9014587 69.7586212,103.4639969 55.1546898,83.7741089 65.2539597,69.9088364"/></g><g><path fill="#fc545d" d="M83.9132233,45.8625069l-1.3517838-1.8404579 c-0.0520401,0.093544-0.1040802,0.1871567-0.1559982,0.2703552c0.509491,1.674057,0.3014526,3.7120819-0.1455841,5.6148643 c-0.7303772,3.0068855-2.0683365,5.642746-3.8471985,8.1000519 c-48.8602066,67.0947876-36.1674614,49.6651192-38.33741,52.6448936 c-0.9669418,1.3205032-0.9253082,3.1193924,0.0936699,4.3983231l5.5837021,7.0186234 c1.4869652,1.8716202,4.346405,1.8196411,5.7603874-0.0936127l32.3377686-43.6090622 C91.0148621,68.7068024,91.035675,55.5221939,83.9132233,45.8625069z"/></g><g opacity=".3"><path fill="#fff" d="M62.8243637,100.2796783c-0.2651711,0-0.5315781-0.0826416-0.7597504-0.2546921 c-0.5562477-0.41996-0.6672516-1.2117844-0.2479095-1.7686462l1.4812737-1.9641342 c0.420578-0.5568619,1.2111626-0.6690979,1.7698784-0.2479095c0.5562515,0.41996,0.6672516,1.2117844,0.2479095,1.7686462 l-1.4812737,1.9641342C63.58535,100.1063843,63.207943,100.2796783,62.8243637,100.2796783z"/><path fill="#fff" d="M49.8752594,117.4487381c-0.2639389,0-0.5315781-0.082634-0.7597542-0.2546844 c-0.5562477-0.41996-0.6672478-1.2117844-0.2479057-1.7686462l10.4959412-13.9166794 c0.420578-0.5568695,1.2123985-0.6691055,1.7698784-0.2479095c0.5562477,0.41996,0.6672516,1.2117844,0.2479095,1.7686462 l-10.4959412,13.9166794C50.6362457,117.2754517,50.2588348,117.4487381,49.8752594,117.4487381z"/></g><g opacity=".3"><path fill="#fff" d="M82.9984741,23.3919907V34.211998c0,0.3699951-0.2999268,0.6699829-0.6699219,0.6699829 s-0.6699219-0.2999878-0.6699219-0.6699829V23.3919907c0-0.3699951,0.2999268-0.6699829,0.6699219-0.6699829 S82.9984741,23.0219955,82.9984741,23.3919907z"/></g></g></svg>