<svg xmlns="http://www.w3.org/2000/svg"  viewBox="0 0 64 64" width="128px" height="128px"><g data-name="27-Healthcare"><path fill="#fdd5a6" d="M47.53524,34.04435a4.17614,4.17614,0,0,1,4.459-.95134v-8.291a3.81338,3.81338,0,0,1,3.80121-3.80063c2.06272,0,3.23183,1.50706,3.77385,3.54348.64534,2.42454,1.61926,8.31846,2.402,11.23425a7.269,7.269,0,0,1-2.27775,6.93938l-7.99412,7.992c-.80251.80232-.70129,1.01986-.70129,4.29286l-14.00391-.002V49.312c0-2.12033.06732-4.71086,2.41407-7.07623Z"/><path fill="#fdd5a6" d="M16.45951,34.04435a4.17612,4.17612,0,0,0-4.459-.95134v-8.291a3.81337,3.81337,0,0,0-3.80122-3.80063c-2.06272,0-3.23183,1.50706-3.77386,3.54348-.64534,2.42454-1.61926,8.31846-2.402,11.23425a7.269,7.269,0,0,0,2.27773,6.93938l7.99413,7.992c.8025.80232.70129,1.01986.70129,4.29286l14.00391-.002V49.312c0-2.12033-.06732-4.71086-2.41407-7.07623Z"/><path fill="#fc6067" d="M32.00245,2.00343A16.9968,16.9968,0,1,0,49.00294,18.99654,17.0097,17.0097,0,0,0,32.00245,2.00343Z"/><path fill="#fb4b5b" d="M32.00244,2.00342a17.072,17.072,0,0,0-2,.12817,16.98491,16.98491,0,0,1,0,33.73718,16.99222,16.99222,0,1,0,2-33.86535Z"/><path fill="#e7eaef" d="M28.00147,9.998v5.00492H22.99655A1.00013,1.00013,0,0,0,22,15.99949V22.001a1.00013,1.00013,0,0,0,.99656.99656h5.00492v5.00492a1.00012,1.00012,0,0,0,.99655.99655H34.9995a1.00014,1.00014,0,0,0,1.00394-.99655V22.99753H41.001a1.00013,1.00013,0,0,0,.99656-.99656V15.99949a1.00013,1.00013,0,0,0-.99656-.99655H36.00344V9.998a1.00015,1.00015,0,0,0-1.00394-.99656H28.95A1.00533,1.00533,0,0,0,28.00147,9.998Z"/><path fill="#d8dbe0" d="M32.00348,9.998v5.00494h4V9.998a1.00014,1.00014,0,0,0-1.004-.99653h-4A1.00014,1.00014,0,0,1,32.00348,9.998Z"/><path fill="#d8dbe0" d="M41.001,15.00293h-4a1.00016,1.00016,0,0,1,.99658.99652V22.001a1.00016,1.00016,0,0,1-.99658.99652h4a1.00016,1.00016,0,0,0,.99658-.99652V15.99945A1.00016,1.00016,0,0,0,41.001,15.00293Z"/><path fill="#d8dbe0" d="M32.00348,28.00244a1.00012,1.00012,0,0,1-1.004.99652h4a1.00012,1.00012,0,0,0,1.004-.99652V22.9975h-4Z"/><path fill="#fdca99" d="M11.99964,31.01564a6.14337,6.14337,0,0,0-2.86915,1.61323,6.21135,6.21135,0,0,0,0,8.74414l5.875,5.877a1.00011,1.00011,0,1,0,1.414-1.41409l-5.875-5.877a4.20035,4.20035,0,0,1,0-5.916,4.13539,4.13539,0,0,1,1.45509-.9375Z"/><path fill="#68b1fc" d="M10.99571,53.99806a1.00008,1.00008,0,0,0-.99609,1.00388v5.99415A1.0001,1.0001,0,0,0,10.99571,62h18.0039a1.0001,1.0001,0,0,0,.998-1.00215V55.00194a1.00011,1.00011,0,0,0-.99631-1.00388H10.99571Z"/><path fill="#539ffb" d="M29.00134,53.99805h-4a1.0001,1.0001,0,0,1,.99634,1.0039v5.99591A1.00013,1.00013,0,0,1,24.99963,62h4a1.00013,1.00013,0,0,0,.998-1.00214V55.002A1.0001,1.0001,0,0,0,29.00134,53.99805Z"/><path fill="#fdca99" d="M51.99509,31.01564a6.1436,6.1436,0,0,1,2.86916,1.61323,6.21138,6.21138,0,0,1,0,8.74414l-5.875,5.877a1.00011,1.00011,0,1,1-1.41408-1.41409l5.875-5.877a4.20034,4.20034,0,0,0,0-5.916,4.13517,4.13517,0,0,0-1.45508-.9375Z"/><path fill="#68b1fc" d="M52.999,53.99806a1.00008,1.00008,0,0,1,.99609,1.00388v5.99415A1.0001,1.0001,0,0,1,52.999,62H34.99507a1.00011,1.00011,0,0,1-.998-1.00221V55.00194a1.00011,1.00011,0,0,1,.99631-1.00388H52.999Z"/><path fill="#539ffb" d="M52.999,53.99805h-4a1.0001,1.0001,0,0,1,.9961,1.0039v5.99414A1.00011,1.00011,0,0,1,48.999,62h4a1.00011,1.00011,0,0,0,.9961-1.00391V55.002A1.0001,1.0001,0,0,0,52.999,53.99805Z"/></g></svg>