<svg xmlns="http://www.w3.org/2000/svg"  viewBox="0 0 64 64" width="64px" height="64px"><g data-name="35-Placeholder"><path fill="#68b1fc" d="M61.63086,57.56982,55.44531,46.53223A3.00617,3.00617,0,0,0,52.82812,45H11.17188a3.00509,3.00509,0,0,0-2.61719,1.5332L2.36133,57.584a2.95824,2.95824,0,0,0,.06347,2.94483A3.001,3.001,0,0,0,5.02539,62H58.97461a3.001,3.001,0,0,0,2.60059-1.47119A2.96469,2.96469,0,0,0,61.63086,57.56982Z"/><path fill="#539ffb" d="M61.63086,57.56982,55.44531,46.53223A3.00617,3.00617,0,0,0,52.82812,45h-4a3.00617,3.00617,0,0,1,2.61719,1.53223l6.18555,11.03759a2.96469,2.96469,0,0,1-.05566,2.959A3.001,3.001,0,0,1,54.97461,62h4a3.001,3.001,0,0,0,2.60059-1.47119A2.96469,2.96469,0,0,0,61.63086,57.56982Z"/><path fill="#fc6067" d="M31.99991,2.00205A23.02015,23.02015,0,0,0,8.996,25.004c.00006,8.45826,5.69087,16.58831,11.26558,22.66989A84.26092,84.26092,0,0,0,31.408,57.80867a1.00008,1.00008,0,0,0,1.18162,0A84.266,84.266,0,0,0,43.73614,47.67391C49.31091,41.59233,54.99975,33.46234,54.99975,25.004A23.01678,23.01678,0,0,0,31.9998,2.00205Z"/><path fill="#fb4b5b" d="M31.99988,2.002c-.67438,0-1.34027.03522-2,.09229A23.017,23.017,0,0,1,50.99976,25.004c0,8.45831-5.68885,16.58832-11.26361,22.66986a86.87437,86.87437,0,0,1-9.73725,9.051c.88342.70063,1.40918,1.0838,1.40918,1.0838a1,1,0,0,0,1.18158,0A84.26482,84.26482,0,0,0,43.73615,47.67389C49.31091,41.59235,54.99976,33.46234,54.99976,25.004A23.01677,23.01677,0,0,0,31.99988,2.002Z"/><path fill="#e7eaef" d="M32.00245,7.99851A17.00049,17.00049,0,1,0,49.00294,24.999,17.016,17.016,0,0,0,32.00245,7.99851Z"/><path fill="#d8dbe0" d="M19.002,24.999A17.01345,17.01345,0,0,1,34.00244,8.12671a17.0007,17.0007,0,1,0,0,33.74451A17.0135,17.0135,0,0,1,19.002,24.999Z"/><path fill="#fc6067" d="M28.998,14.99654a1.00009,1.00009,0,0,0-.99655,1.00365V20.998H22.99655A1.00011,1.00011,0,0,0,22,22.00166v6.00177A1.00013,1.00013,0,0,0,22.99655,29h5.00492v4.99754a1.00012,1.00012,0,0,0,.99625,1.00394H34.9995a1.00009,1.00009,0,0,0,1.00394-.99627V29H41.001a1.00013,1.00013,0,0,0,.99656-.99655V22.002a1.00013,1.00013,0,0,0-.99625-1.00394H36.00344V16.00048a1.00013,1.00013,0,0,0-.99626-1.00394H28.998Z"/><path fill="#fb4b5b" d="M32.00348,16.00049V20.998h4v-4.9975a1.00016,1.00016,0,0,0-.99628-1.004h-4A1.00016,1.00016,0,0,1,32.00348,16.00049Z"/><path fill="#fb4b5b" d="M41.00128,20.998h-4a1.00019,1.00019,0,0,1,.99628,1.004v6.00147a1.00012,1.00012,0,0,1-.99658.99652h4a1.00012,1.00012,0,0,0,.99658-.99652V22.002A1.00019,1.00019,0,0,0,41.00128,20.998Z"/><path fill="#fb4b5b" d="M32.00348,34.00519a1.00014,1.00014,0,0,1-1.004.99627h4a1.00014,1.00014,0,0,0,1.004-.99627V28.99994h-4Z"/></g></svg>