<svg xmlns="http://www.w3.org/2000/svg"  viewBox="0 0 64 64" width="128px" height="128px"><g data-name="26-Motorcycle"><path fill="#303030" d="M61,42h2a10.657,10.657,0,0,0-6-9H50l-1.5,1.5.5.5.388.866A8,8,0,1,0,60.94,43.99a8.086,8.086,0,0,0-.007-2.022c0,.014.005.028.007.042Zm-8,6a5,5,0,1,1,5-5A5,5,0,0,1,53,48Z"/><path fill="#1a1a1a" d="M55.67,38.77A5,5,0,1,0,58,43,4.963,4.963,0,0,0,55.67,38.77Zm1.6-2.53A7.975,7.975,0,0,1,61,43a8.1,8.1,0,0,1-.06.99A8,8,0,1,1,51,35.25,8.239,8.239,0,0,1,53,35,7.879,7.879,0,0,1,57.27,36.24Z"/><path fill="#ccc" d="M55.67,38.77A5,5,0,1,1,53,38,5,5,0,0,1,55.67,38.77Z"/><path fill="#212121" d="M36,32v2.5A2.5,2.5,0,0,0,33.5,32Z"/><path fill="#303030" d="M63,42H61l-.06.01A8,8,0,0,0,53,35a7.822,7.822,0,0,0-3.61.87L49,35l-.5-.5L50,33h7A10.657,10.657,0,0,1,63,42Z"/><path fill="#4a4a4a" d="M57,32v1H50l-1.5,1.5L48,35H36V32h.78A1.212,1.212,0,0,0,38,30.78a1.268,1.268,0,0,0-.19-.66L38,30l4.33,1.24a6.013,6.013,0,0,0,4.98-.78L48,30h7Z"/><path fill="#404040" d="M49,35l.39.87a7.87,7.87,0,0,0-3.33,3.16L46,39H39l-3-4H48l.5-.5Z"/><path fill="#212121" d="M46,39l.06.03A7.954,7.954,0,0,0,45,43a8.262,8.262,0,0,0,.06,1H42l-4.85-3.23L36,40V35l3,4Z"/><path fill="#adadad" d="M41,47H26.442a2,2,0,0,1-1.9-1.368L24,44H37.75L38,45Z"/><path fill="#303030" d="M37.81,30.12a1.268,1.268,0,0,1,.19.66A1.212,1.212,0,0,1,36.78,32H28.02a2.468,2.468,0,0,1-1.74-.72l-1.56-1.56A2.468,2.468,0,0,1,24,27.98v-.51a2.316,2.316,0,0,1,.04-.46,2.564,2.564,0,0,1,.68-1.29A2.488,2.488,0,0,1,26.47,25a2.562,2.562,0,0,1,1.02.22l9.8,4.46A1.307,1.307,0,0,1,37.81,30.12Z"/><path fill="#1a1a1a" d="M37,31H29.02a2.468,2.468,0,0,1-1.74-.72l-1.56-1.56A2.468,2.468,0,0,1,25,26.98v-.51a2.316,2.316,0,0,1,.04-.46,2.578,2.578,0,0,1,.249-.7,2.357,2.357,0,0,0-1.249,1.7,2.316,2.316,0,0,0-.04.46v.51a2.468,2.468,0,0,0,.72,1.74l1.56,1.56a2.468,2.468,0,0,0,1.74.72h8.76a1.2,1.2,0,0,0,1.184-1.036A1.273,1.273,0,0,1,37.78,31Z"/><polygon fill="#ccc" points="37 41 37.75 44 24 44 23 41 37 41"/><path fill="#303030" d="M36,40l1.15.77L37,41H23l3-3v-.05a2.734,2.734,0,0,0,.5.05h7A2.5,2.5,0,0,0,36,35.5Z"/><path fill="#e3e3e3" d="M36,35v.5A2.5,2.5,0,0,1,33.5,38h-7a2.734,2.734,0,0,1-.5-.05,2.5,2.5,0,0,1-2-2.45v-1A2.5,2.5,0,0,1,26.5,32h7A2.5,2.5,0,0,1,36,34.5Z"/><path fill="#ccc" d="M33.5,36h-7a2.734,2.734,0,0,1-.5-.05,2.5,2.5,0,0,1-1.948-1.958A2.5,2.5,0,0,0,24,34.5v1a2.5,2.5,0,0,0,2,2.45,2.734,2.734,0,0,0,.5.05h7A2.5,2.5,0,0,0,36,35.5v-1a2.577,2.577,0,0,0-.05-.5A2.5,2.5,0,0,1,33.5,36Z"/><path fill="#212121" d="M19.8,25.9l.48-.76L24,27l.04.01a2.316,2.316,0,0,0-.04.46v.51a2.468,2.468,0,0,0,.72,1.74l1.56,1.56a2.468,2.468,0,0,0,1.74.72H26.5A2.5,2.5,0,0,0,24,34.5v1a2.5,2.5,0,0,0,2,2.45V38l-3,3L19.03,27.11Z"/><polygon fill="#4a4a4a" points="20.28 25.14 19.8 25.9 18 25 15 25 15 22 23.67 22 21 24 20.28 25.14"/><path fill="#303030" d="M20,44H17l-.06-.01A8.1,8.1,0,0,0,17,43a7.975,7.975,0,0,0-3.73-6.76l1.4-2.22A11.959,11.959,0,0,1,20,44Z"/><path fill="#ccc" d="M19.03,27.11l-1.18,1.88A2,2,0,0,1,18,25l1.8.9Z"/><path fill="#1a1a1a" d="M11.67,38.77A5,5,0,1,0,14,43,4.963,4.963,0,0,0,11.67,38.77Zm1.6-2.53A7.975,7.975,0,0,1,17,43a8.1,8.1,0,0,1-.06.99A8,8,0,1,1,7,35.25,8.239,8.239,0,0,1,9,35,7.879,7.879,0,0,1,13.27,36.24Z"/><path fill="#303030" d="M14.67,34.02l-1.4,2.22A7.879,7.879,0,0,0,9,35a8.239,8.239,0,0,0-2,.25V32H8A11.9,11.9,0,0,1,14.67,34.02Z"/><path fill="#ccc" d="M11.67,38.77A5,5,0,1,1,9,38,5,5,0,0,1,11.67,38.77Z"/><path d="M9,44a1,1,0,0,1-.845-1.534l12-19A1.006,1.006,0,0,1,20.4,23.2l4-3a1,1,0,0,1,1.048-.1l4,2a1,1,0,1,1-.894,1.79l-3.447-1.724-3.359,2.518L9.846,43.534A1,1,0,0,1,9,44Z"/><circle cx="9" cy="43" r="2" fill="#303030"/><circle cx="53" cy="43" r="2" fill="#303030"/><polygon fill="#f0f0f0" points="37.75 44 37 41 37.15 40.77 42 44 45.06 44 48.1 44 53 44 57 44 57 47 46.07 47 44 47 41 47 38 45 37.75 44"/><path fill="#f0f0f0" d="M48,35a1.006,1.006,0,0,0,.083.413L51.905,44H54a1,1,0,0,0-.083-.407l-4-9A1,1,0,0,0,49,34l-.5.5Z"/><rect width="8" height="4" x="26" y="33" fill="#b8b8b8" rx="2"/><path fill="#ccc" d="M43,46a1,1,0,0,1-1-1V44l-4.85-3.23L37,41l.75,3L38,45l3,2H57V46Z"/><path fill="#8f8f8f" d="M38,45l-.25-1H34.723A1.987,1.987,0,0,1,35,45l2,2h4Z"/><path fill="#adadad" d="M34.723,44H37.75L37,41H23l.667,2H33A1.994,1.994,0,0,1,34.723,44Z"/><path fill="#303030" d="M39.406,37.109,38,35H36l3,4h7l.06.03a7.835,7.835,0,0,1,.7-1.03H41.07A2,2,0,0,1,39.406,37.109Z"/><path fill="#1a1a1a" d="M49,32l-1,1H41a2,2,0,0,1-2-2v-.714L38,30l-.19.12a1.268,1.268,0,0,1,.19.66A1.212,1.212,0,0,1,36.78,32H36v3H48l.5-.5L50,33h7V32Z"/><rect width="58" height="2" x="1" y="51" fill="#212121"/><rect width="2" height="2" x="61" y="51" fill="#212121"/></g></svg>